<svg xmlns="http://www.w3.org/2000/svg" width="24" height="24" viewBox="0 0 24 24">
    <g fill="#070B37" fill-rule="evenodd">
        <path d="M17.28 0H6.587A6.594 6.594 0 0 0 0 6.587V17.28a6.594 6.594 0 0 0 6.586 6.587h10.695a6.594 6.594 0 0 0 6.587-6.587V6.587A6.594 6.594 0 0 0 17.28 0zm4.47 17.281a4.474 4.474 0 0 1-4.469 4.469H6.586a4.474 4.474 0 0 1-4.468-4.469V6.587a4.474 4.474 0 0 1 4.468-4.47h10.695a4.474 4.474 0 0 1 4.469 4.47V17.28z"/>
        <path d="M11.934 5.784a6.157 6.157 0 0 0-6.15 6.15 6.157 6.157 0 0 0 6.15 6.15 6.157 6.157 0 0 0 6.15-6.15 6.157 6.157 0 0 0-6.15-6.15zm0 10.182A4.037 4.037 0 0 1 7.9 11.934a4.037 4.037 0 0 1 4.033-4.032 4.037 4.037 0 0 1 4.032 4.032 4.037 4.037 0 0 1-4.032 4.032zM18.342 3.988a1.56 1.56 0 0 0-1.097.455 1.56 1.56 0 0 0-.456 1.098c0 .408.166.81.456 1.099.288.288.689.454 1.097.454.41 0 .809-.166 1.098-.454.29-.29.455-.69.455-1.099 0-.41-.165-.81-.455-1.098a1.56 1.56 0 0 0-1.098-.455z"/>
    </g>
</svg>
