<svg xmlns="http://www.w3.org/2000/svg" width="24" height="24" viewBox="0 0 24 24">
    <path fill="#070B37" fill-rule="evenodd" d="M2.991 0A2.993 2.993 0 0 0 0 2.991V21.01A2.993 2.993 0 0 0 2.991 24H21.01A2.993 2.993 0 0 0 24 21.009V2.99A2.993 2.993 0 0 0 21.009 0H2.99zm14.515 13.374l2.084 2.395a.473.473 0 0 1-.357.784h-2.352c-.371 0-.73-.141-1.002-.394l-.696-.648c-.786-.688-1.12-.924-1.435-.924-.314 0-.393.236-.393.845 0 .61-.118 1.12-1.926 1.12-1.807 0-3.222-1.355-4.814-3.458s-2.3-4.363-2.3-4.363a.44.44 0 0 1 .42-.57h1.883c.358 0 .684.208.834.532.154.334.42.849.873 1.61.643 1.081 1.261 1.568 1.611 1.775a.196.196 0 0 0 .295-.17V9.317c0-.339-.123-.667-.345-.923l-.266-.305a.122.122 0 0 1 .092-.202h2.975c.456 0 .826.37.826.826v3.015c0 .194.252.27.359.108l2.141-3.227a.911.911 0 0 1 .76-.407h2.512c.344 0 .553.378.37.669l-2.224 3.535a.815.815 0 0 0 .075.969z"/>
</svg>
