<?xml version="1.0" encoding="utf-8"?>
<svg display="none" height="0" version="1.1" width="0" xmlns="http://www.w3.org/2000/svg" xmlns:xlink="http://www.w3.org/1999/xlink">
	<title>Иконки</title>
	<desc></desc>
	<defs>
		<symbol id="burger" viewBox="0 0 20 12">
			<rect width="20" height="2" rx="1"/>
			<rect width="20" height="2" y="5" rx="1"/>
			<rect width="20" height="2" y="10" rx="1"/>
		</symbol>
		<symbol id="message-cloud" viewBox="0 0 22 24">
			<path fill="none" fill-rule="evenodd" stroke="#070b37" stroke-width="2" d="M5.382 22.145a86.379 86.379 0 0 0 .787-1.25c.322-.523.605-1 .847-1.43l.535-.955-.998-.447C3.17 16.547 1 13.44 1 10c0-4.948 4.457-9 10-9s10 4.052 10 9c0 4.631-3.921 8.524-9.048 8.96l-.186.016-.168.082c-.541.264-3.15 1.6-3.571 1.813-.209.105-.408.205-.602.3-.763.38-1.448.706-2.043.974z"/>
		</symbol>
		<symbol id="disclosure-indicator" viewBox="0 0 13 8">
			<path fill="#000" fill-rule="evenodd" d="M11.5 0L13 1.5 6.5 8 0 1.5 1.5 0l5 5z"/>
		</symbol>
		<symbol id="social-vk" viewBox="0 0 24 24">
			<path fill="#070B37" fill-rule="evenodd" d="M2.991 0A2.993 2.993 0 0 0 0 2.991V21.01A2.993 2.993 0 0 0 2.991 24H21.01A2.993 2.993 0 0 0 24 21.009V2.99A2.993 2.993 0 0 0 21.009 0H2.99zm14.515 13.374l2.084 2.395a.473.473 0 0 1-.357.784h-2.352c-.371 0-.73-.141-1.002-.394l-.696-.648c-.786-.688-1.12-.924-1.435-.924-.314 0-.393.236-.393.845 0 .61-.118 1.12-1.926 1.12-1.807 0-3.222-1.355-4.814-3.458s-2.3-4.363-2.3-4.363a.44.44 0 0 1 .42-.57h1.883c.358 0 .684.208.834.532.154.334.42.849.873 1.61.643 1.081 1.261 1.568 1.611 1.775a.196.196 0 0 0 .295-.17V9.317c0-.339-.123-.667-.345-.923l-.266-.305a.122.122 0 0 1 .092-.202h2.975c.456 0 .826.37.826.826v3.015c0 .194.252.27.359.108l2.141-3.227a.911.911 0 0 1 .76-.407h2.512c.344 0 .553.378.37.669l-2.224 3.535a.815.815 0 0 0 .075.969z"/>
		</symbol>
		<symbol id="social-in" viewBox="0 0 24 24">
			<g fill="#070B37" fill-rule="evenodd">
					<path d="M17.28 0H6.587A6.594 6.594 0 0 0 0 6.587V17.28a6.594 6.594 0 0 0 6.586 6.587h10.695a6.594 6.594 0 0 0 6.587-6.587V6.587A6.594 6.594 0 0 0 17.28 0zm4.47 17.281a4.474 4.474 0 0 1-4.469 4.469H6.586a4.474 4.474 0 0 1-4.468-4.469V6.587a4.474 4.474 0 0 1 4.468-4.47h10.695a4.474 4.474 0 0 1 4.469 4.47V17.28z"/>
					<path d="M11.934 5.784a6.157 6.157 0 0 0-6.15 6.15 6.157 6.157 0 0 0 6.15 6.15 6.157 6.157 0 0 0 6.15-6.15 6.157 6.157 0 0 0-6.15-6.15zm0 10.182A4.037 4.037 0 0 1 7.9 11.934a4.037 4.037 0 0 1 4.033-4.032 4.037 4.037 0 0 1 4.032 4.032 4.037 4.037 0 0 1-4.032 4.032zM18.342 3.988a1.56 1.56 0 0 0-1.097.455 1.56 1.56 0 0 0-.456 1.098c0 .408.166.81.456 1.099.288.288.689.454 1.097.454.41 0 .809-.166 1.098-.454.29-.29.455-.69.455-1.099 0-.41-.165-.81-.455-1.098a1.56 1.56 0 0 0-1.098-.455z"/>
			</g>
		</symbol>
		<symbol id="social-fb" viewBox="0 0 24 24">
			<path fill="#070B37" fill-rule="evenodd" d="M24 4c0-2.102-1.898-4-4-4H4C1.898 0 0 1.898 0 4v16c0 2.102 1.898 4 4 4h8v-9.067H9.067v-4H12V9.375c0-2.688 2.018-5.108 4.5-5.108h3.233v4H16.5c-.354 0-.767.43-.767 1.073v1.593h4v4h-4V24H20c2.102 0 4-1.898 4-4V4z"/>
		</symbol>
		<symbol id="close" viewBox="0 0 16 16">
			<g fill="none" fill-rule="evenodd" opacity=".5">
	        <path fill="#FFF" d="M0 0h16v16H0z"/>
	        <path stroke="#000" stroke-linecap="round" d="M.96.705l14.528 14.53M15.488.705L.96 15.235"/>
	    </g>
		</symbol>
		<symbol id="flag-russia" viewBox="0 0 9 6">
			<rect fill="#fff" width="9" height="3"/>
			<rect fill="#d52b1e" y="3" width="9" height="3"/>
			<rect fill="#0039a6" y="2" width="9" height="2"/>
		</symbol>
	</defs>
</svg>
